<svg id="Layer_1" data-name="Layer 1" xmlns="http://www.w3.org/2000/svg" viewBox="0 0 693.71 176.08" height="48">
  <defs>
    <style>
      .cls-1 {
        fill: #1a1a2e;
        stroke-width: 0px;
      }
    </style>
  </defs>
  <g>
    <path class="cls-1" d="m89.37,109.55h-4.71v-2.8c0-11.99-.03-23.98.03-35.97,0-1.6-.33-2.45-2-3.07-24.26-8.99-48.48-18.07-72.71-27.12-.56-.21-1.16-.33-1.98-.55,0,1.05,0,1.91,0,2.77,0,27.68.02,55.36-.05,83.04,0,1.97.56,2.91,2.37,3.7,12.35,5.37,24.62,10.92,36.97,16.27,2.04.88,3.05,1.88,3.07,4.19.02,2.05.63,4.1,1.04,6.57-4.52-1.93-8.71-3.71-12.88-5.5-12.05-5.17-24.09-10.37-36.17-15.47C.65,134.91,0,134.07,0,132.16c.06-32.35.06-64.7,0-97.05,0-1.89.57-2.74,2.35-3.41C29.65,21.28,56.9,10.76,84.2.36c1.17-.45,2.8-.49,3.95-.05,27.3,10.4,54.55,20.92,81.85,31.33,1.89.72,2.48,1.6,2.48,3.59-.06,32.26-.05,64.53-.04,96.79,0,1.43.06,2.62-1.7,3.36-16.13,6.83-32.21,13.76-48.3,20.66-.32.14-.67.18-1.24.33.4-2.94.65-5.79,1.25-8.56.15-.68,1.32-1.29,2.15-1.66,12.38-5.52,24.77-11,37.16-16.49.88-.39,1.75-.8,2.59-1.19V40.58c-3.18,1.19-6.13,2.29-9.08,3.38-21.11,7.85-42.22,15.73-63.35,23.51-1.95.72-2.64,1.61-2.62,3.75.12,11.72.06,23.45.06,35.17v3.17ZM12.54,36.28c.99.42,1.47.64,1.96.82,23.58,8.77,47.15,17.56,70.77,26.25,1.15.42,2.76.24,3.95-.2,18.34-6.72,36.64-13.53,54.95-20.33,5.62-2.09,11.23-4.21,17.19-6.44-.81-.39-1.2-.6-1.6-.76-23.71-9.19-47.41-18.39-71.15-27.49-1.07-.41-2.6-.26-3.71.16-13.81,5.27-27.57,10.65-41.36,15.99-10.16,3.94-20.33,7.87-31.01,12Z"></path>
    <path class="cls-1" d="m112.39,148.89c0-6.19-1.41-8.15-7.14-10.03-1.49-14.35-7.52-21.57-18.35-21.78-4.55-.09-8.64,1.42-12.15,4.38-5.46,4.6-7,10.73-6.6,17.46-5.56,1.5-7.3,3.75-7.32,9.28-.02,6.25-.03,12.5,0,18.76.03,6.24,2.81,9.07,9.04,9.09,11.18.04,22.37.05,33.55,0,6.06-.03,8.92-2.91,8.95-8.92.04-6.08.01-12.15,0-18.23Zm-14.54-9.33h-22.35c-.77-5.77.54-10.51,5.64-13.37,3.89-2.19,7.95-2.04,11.73.51,4.58,3.09,5.34,7.67,4.98,12.86Z"></path>
  </g>
  <path class="cls-1" d="m243.22,118.33v6.69h-14.8c-7.37,0-10.6,3.69-10.6,12.47s3.17,12.42,10.6,12.42h14.8v6.69h-14.8c-11.17,0-17.29-6.29-17.29-19.11s6.18-19.16,17.29-19.16h14.8Zm12.19,0l10.72,16.39,10.83-16.39h7.94l-15.42,21.77v16.5h-6.75v-16.5l-15.42-21.77h8.11Zm54.88,0c9.01,0,12.81,4.25,12.81,10.49,0,4.42-1.93,7.09-5.5,8.5,3.63,1.47,5.67,4.31,5.67,8.73,0,6.12-3.8,10.55-12.81,10.55h-17.01c-2.15,0-3.17-1.02-3.17-3.12v-32.03c0-2.1,1.02-3.12,3.17-3.12h16.84Zm-13.44,16.16h13.61c3.97,0,5.9-1.47,5.9-4.59s-1.76-4.99-5.84-4.99h-12.93c-.45,0-.74.23-.74.68v8.9Zm0,14.85c0,.45.28.62.74.62h13.04c4.03,0,5.9-1.87,5.9-4.99s-1.98-4.93-5.9-4.93h-13.78v9.3Zm45.41.57c-3.6,0-5.47-1.53-5.75-4.12-.03-.23-.04-.46-.04-.7,0-.29.02-.57.05-.84h0s.04-3.81.04-3.81h24.75v-6.07h-24.69l.04-4.33c0-.07,0-.14,0-.21,0-.11,0-.22,0-.32.12-2.76,1.9-4.5,5.77-4.5h19.16v-6.69h-19.16c-9.02,0-12.81,4.31-12.81,10.43l-.11,17.36v.12c.03,5.92,3.72,10.36,12.76,10.36h19.39v-6.69h-19.39Zm119.62,0c-3.6,0-5.47-1.53-5.75-4.12-.03-.23-.04-.46-.04-.7,0-.29.02-.57.05-.84h0s.04-3.81.04-3.81h24.75v-6.07h-24.69l.04-4.33c0-.07,0-.14,0-.21,0-.11,0-.22,0-.32.12-2.76,1.9-4.5,5.77-4.5h19.16v-6.69h-19.16c-9.02,0-12.81,4.31-12.81,10.43l-.11,17.36v.12c.03,5.92,3.72,10.36,12.76,10.36h19.39v-6.69h-19.39Zm-66.73-8.62c5.84-1.64,8.11-6.75,8.11-11.51,0-6.12-3.69-11.45-12.3-11.45h-20.69v38.27h6.69v-13.83c0-.68.34-.96.96-.96h9.98l8.73,14.8h7.43l-8.9-15.31Zm-3.97-5.9h-14.23v-10.38h14.23c3.69,0,5.33,2.32,5.33,5.05s-1.53,5.33-5.33,5.33Zm203.73,5.9c5.84-1.64,8.11-6.75,8.11-11.51,0-6.12-3.69-11.45-12.3-11.45h-20.69v38.27h6.69v-13.83c0-.68.34-.96.96-.96h9.98l8.73,14.8h7.43l-8.9-15.31Zm-3.97-5.9h-14.23v-10.38h14.23c3.69,0,5.33,2.32,5.33,5.05s-1.53,5.33-5.33,5.33Zm-150.6-17.07v6.69h-19.62c-3.46,0-4.99,1.87-4.99,4.54,0,2.32,1.19,4.54,5.67,4.54h8.96c10.43,0,12.87,5.78,12.87,11.28,0,6.46-3.46,11.23-12.19,11.23h-21.32v-6.69h21.54c3.63,0,5.27-1.98,5.27-4.76,0-2.49-1.3-4.76-6.01-4.76h-8.9c-10.21,0-12.59-5.73-12.59-11.06,0-6.35,3.4-11,11.91-11h19.39Zm80.28,0v6.69h-14.8c-7.37,0-10.6,3.69-10.6,12.47s3.17,12.42,10.6,12.42h14.8v6.69h-14.8c-11.17,0-17.29-6.29-17.29-19.11s6.18-19.16,17.29-19.16h14.8Zm14.51,0v25.57c0,3.8,1.93,6.01,6.35,6.01h6.8c4.31,0,6.29-2.21,6.29-6.01v-25.57h6.58v26.08c0,8.05-4.25,12.19-12.42,12.19h-8.05c-8.16,0-12.36-4.14-12.36-12.19v-26.08h6.8Zm82.15,0v38.27h-6.69v-38.27h6.69Zm35.32,0v6.69h-11.17v31.58h-6.75v-31.58h-11.17v-6.69h29.09Zm11.62,0l10.72,16.39,10.83-16.39h7.94l-15.42,21.77v16.5h-6.75v-16.5l-15.42-21.77h8.11Z"></path>
  <g>
    <rect class="cls-1" x="371.73" y="33.94" width="10.48" height="58.95" rx="1" ry="1"></rect>
    <path class="cls-1" d="m252.06,23.85l-16.29,51.44-16.29-51.44c-.63-1.98-2.47-3.33-4.55-3.33h-4.4c-1.61,0-2.76,1.57-2.28,3.11l20.35,64.28c.94,2.98,3.7,5,6.83,5h.67c3.12,0,5.88-2.02,6.83-5l20.35-64.28c.49-1.54-.66-3.11-2.28-3.11h-4.4c-2.08,0-3.92,1.35-4.55,3.33Z"></path>
    <rect class="cls-1" x="371.73" y="10.04" width="10.48" height="10.48" rx="1" ry="1"></rect>
    <rect class="cls-1" x="568.19" y="33.94" width="10.48" height="58.95" rx="1" ry="1"></rect>
    <rect class="cls-1" x="568.19" y="10.04" width="10.48" height="10.48" rx="1" ry="1"></rect>
    <path class="cls-1" d="m637.97,56.81c-.05-15.25-4.05-24.36-17.61-24.36s-18.07,8.42-18.07,8.42v-4.55c0-1.32-1.07-2.39-2.39-2.39h-5.7c-1.32,0-2.39,1.07-2.39,2.39v54.18c0,1.32,1.07,2.39,2.39,2.39h5.7c1.32,0,2.39-1.07,2.39-2.39v-37.58c0-10.89,13.98-12.74,19.56-10.59,5.65,2.18,5.65,11.14,5.65,11.14v37.03c0,1.32,1.07,2.39,2.39,2.39h5.7c1.32,0,2.39-1.07,2.39-2.39v-33.7h0Z"></path>
    <path class="cls-1" d="m496.86,57.47c-.1-15.07-4.13-24.07-17.61-24.07s-18.07,8.42-18.07,8.42V12.42c0-1.32-1.07-2.39-2.39-2.39h-5.7c-1.32,0-2.39,1.07-2.39,2.39v78.09c0,1.32,1.07,2.39,2.39,2.39h5.7c1.32,0,2.39-1.07,2.39-2.39v-36.64c0-10.89,13.98-12.74,19.56-10.59,5.65,2.18,5.65,11.14,5.65,11.14v36.09c0,1.32,1.07,2.39,2.39,2.39h5.7c1.32,0,2.39-1.07,2.39-2.39v-33.04h0Z"></path>
    <path class="cls-1" d="m353.38,32.46c-13.65,0-18.07,8.42-18.07,8.42v-4.55c0-1.32-1.07-2.39-2.39-2.39h-5.7c-1.32,0-2.39,1.07-2.39,2.39v54.18c0,1.32,1.07,2.39,2.39,2.39h5.7c1.32,0,2.39-1.07,2.39-2.39v-37.58c0-10.89,14.28-12.77,19.86-10.6.09.03.18.07.26.11,1.89.84,4.1.09,4.94-1.81l2.62-5.87c-2.48-1.5-5.62-2.31-9.61-2.31Z"></path>
    <path class="cls-1" d="m277.03,67.42h33.67c1.32,0,2.39-1.07,2.39-2.39v-11.23c0-11.79-9.56-21.35-21.35-21.35h-3.99c-11.79,0-21.35,9.56-21.35,21.35v19.25c0,11.79,9.56,21.35,21.35,21.35h3.99c7.94,0,14.86-3.64,18.54-9.93.69-1.18.25-2.71-.96-3.34l-3.06-1.6c-1.56-.81-3.45-.39-4.56.97-2.27,2.78-5.87,4.36-9.91,4.36h-2.33c-6.87,0-12.44-5.42-12.44-12.1v-5.34Zm0-14.82c0-5.57,4.52-10.09,10.09-10.09h5.25c5.57,0,10.09,4.52,10.09,10.09v6.29h-25.43v-6.29Z"></path>
    <path class="cls-1" d="m405.33,67.82v-15.22c0-5.57,4.52-10.09,10.09-10.09h5.25c3.94,0,7.35,2.26,9.01,5.55.82,1.63,2.65,2.46,4.39,1.91l4.12-1.29c1.34-.42,2.05-1.92,1.5-3.22-3.25-7.65-10.83-13.01-19.66-13.01h-3.99c-11.79,0-21.35,9.56-21.35,21.35v19.25c0,11.79,9.56,21.35,21.35,21.35h3.99c7.94,0,14.86-3.64,18.54-9.93.69-1.18.25-2.71-.96-3.34l-3.05-1.6c-1.56-.81-3.45-.39-4.56.97-2.27,2.78-5.87,4.36-9.91,4.36h-2.33c-6.87,0-12.44-5.42-12.44-12.1v-5.34"></path>
    <path class="cls-1" d="m554.7,51.47c0-13.46-10.21-19.02-21.22-19.02h-3.99c-6.19,0-11.75,2.64-15.65,6.85-.88.95-.84,2.45.09,3.35l2.81,2.73c1.4,1.36,3.67,1.44,5.05.06,1.81-1.81,4.3-2.93,7.07-2.93h5.25c5.19,0,10.11,3.68,10.11,8.96h0v6.82h-20.49c-8.97,0-16.24,7.27-16.24,16.24v2.1c0,9.82,7.96,17.78,17.78,17.78h1.57c7.26,0,14.09-3.09,17.37-9.36v5.47c0,1.32,1.07,2.39,2.39,2.39h5.7c1.32,0,2.39-1.07,2.39-2.39v-39.04h0Zm-23.78,32.6h-5.63c-4.25,0-7.69-2.91-7.69-7.69v-2.47c0-4.13,3.35-7.47,7.47-7.47h19.16v10.75c-1.82,4.46-7.09,6.88-13.3,6.88Z"></path>
    <path class="cls-1" d="m671.25,94.4c-4.57,0-8.34-.64-11.3-1.91-2.96-1.27-5.3-2.87-7.03-4.78-1.72-1.91-3-3.82-3.82-5.73-.49-1.12-.9-2.36-1.26-3.7-.4-1.51.76-2.99,2.32-2.99h5.15c1.54,0,2.88.98,3.44,2.41.38.98.82,1.84,1.31,2.59.86,1.31,2.21,2.47,4.05,3.48,1.84,1.01,4.29,1.52,7.36,1.52,3.52,0,6.26-.84,8.21-2.53,1.95-1.69,2.92-3.77,2.92-6.24,0-2.17-.77-3.9-2.3-5.17-1.54-1.27-3.73-2.25-6.58-2.92l-8.09-1.91c-3-.75-5.81-1.76-8.43-3.04-2.62-1.27-4.74-3.02-6.35-5.23-1.61-2.21-2.42-4.96-2.42-8.26,0-5.1,1.91-9.27,5.73-12.53,3.82-3.26,8.8-4.89,14.95-4.89,4.12,0,7.53.58,10.23,1.74s4.85,2.6,6.46,4.33c1.61,1.73,2.81,3.45,3.6,5.17.42.93.8,1.94,1.12,3.04.45,1.51-.73,3.03-2.31,3.03h-4.68c-1.52,0-2.82-.96-3.43-2.35-.31-.7-.66-1.33-1.05-1.87-.79-1.09-1.97-2.06-3.54-2.92-1.57-.86-3.67-1.29-6.3-1.29-3.59,0-6.22.83-7.87,2.47-1.65,1.65-2.47,3.45-2.47,5.39s.77,3.39,2.31,4.55c1.53,1.16,3.54,2.04,6.01,2.64l8.21,1.91c5.1,1.2,9.31,3.17,12.64,5.9,3.22,2.65,4.89,6.39,5,11.24.05,2.31-.31,4.64-1.16,6.79-1.64,4.2-4.59,7.39-8.84,9.56-3.22,1.65-7.16,2.47-11.8,2.47Z"></path>
  </g>
</svg>
